<svg id="Capa_1" enable-background="new 0 0 512 512" height="512" viewBox="0 0 512 512" width="512" xmlns="http://www.w3.org/2000/svg"><g><path d="m336 497h-160l16-65h128z" fill="#414164"/><path d="m336 497h-80v-65h64z" fill="#28283c"/><path d="m497 126v276c0 16.57-13.43 30-30 30h-422c-16.57 0-30-13.43-30-30v-276c0-16.57 13.43-30 30-30h422c16.57 0 30 13.43 30 30z" fill="#e0e3fa"/><path d="m497 126v276c0 16.57-13.43 30-30 30h-211v-336h211c16.57 0 30 13.43 30 30z" fill="#cdd3f4"/><path d="m467 81h-422c-24.81 0-45 20.19-45 45v276c0 24.81 20.19 45 45 45h422c24.81 0 45-20.19 45-45v-276c0-24.81-20.19-45-45-45zm15 272h-452v-227c0-8.27 6.73-15 15-15h422c8.27 0 15 6.73 15 15z" fill="#555578"/><path d="m512 126v276c0 24.81-20.19 45-45 45h-211v-94h226v-227c0-8.27-6.73-15-15-15h-211v-30h211c24.81 0 45 20.19 45 45z" fill="#414164"/><path d="m383 497c0 8.28-6.72 15-15 15h-224c-8.28 0-15-6.72-15-15s6.72-15 15-15h224c8.28 0 15 6.72 15 15z" fill="#555578"/><path d="m383 497c0 8.28-6.72 15-15 15h-112v-30h112c8.28 0 15 6.72 15 15z" fill="#414164"/><path d="m448.602 279.635-22.39-15.673 22.39-15.673c6.787-4.751 8.438-14.104 3.687-20.891s-14.105-8.437-20.89-3.687l-16.399 11.479v-19.19c0-8.284-6.716-15-15-15s-15 6.716-15 15v19.113l-16.398-11.479c-6.784-4.75-16.138-3.1-20.89 3.687-4.751 6.787-3.101 16.14 3.687 20.891l22.5 15.75-22.5 15.75c-6.787 4.751-8.438 14.104-3.687 20.891 4.767 6.81 14.127 8.421 20.89 3.687l16.398-11.48v19.113c0 8.284 6.716 15 15 15s15-6.716 15-15v-19.19l16.398 11.479c6.772 4.74 16.129 3.115 20.89-3.687 4.751-6.787 3.101-16.14-3.686-20.89z" fill="#69ba67"/><path d="m164.289 227.398c-4.751-6.786-14.102-8.437-20.891-3.687l-16.398 11.479v-19.19c0-8.284-6.716-15-15-15s-15 6.716-15 15v19.113l-16.398-11.479c-6.788-4.75-16.14-3.1-20.891 3.687-4.75 6.787-3.1 16.14 3.687 20.891l22.5 15.75-22.5 15.75c-6.787 4.751-8.437 14.104-3.687 20.891 4.758 6.797 14.113 8.43 20.891 3.687l16.398-11.48v19.113c0 8.284 6.716 15 15 15s15-6.716 15-15v-19.19l16.398 11.479c6.786 4.749 16.139 3.102 20.891-3.687 4.75-6.787 3.1-16.14-3.687-20.891l-22.39-15.673 22.39-15.673c6.787-4.75 8.437-14.103 3.687-20.89z" fill="#79d636"/><path d="m308.29 300.53c-4.734 6.745-14.066 8.447-20.89 3.68l-16.4-11.48v19.19c0 8.29-6.72 15-15 15s-15-6.71-15-15v-19.11l-16.4 11.48c-6.779 4.735-16.126 3.114-20.89-3.69-4.75-6.78-3.1-16.14 3.69-20.89l22.5-15.75-22.5-15.75c-6.79-4.75-8.44-14.1-3.69-20.89s14.1-8.44 20.89-3.69l16.4 11.48v-19.11c0-8.28 6.72-15 15-15s15 6.72 15 15v19.19l16.4-11.48c6.78-4.75 16.14-3.1 20.89 3.69 4.75 6.78 3.1 16.14-3.69 20.89l-22.39 15.67 22.39 15.67c6.79 4.76 8.44 14.11 3.69 20.9z" fill="#79d636"/><path d="m308.29 300.53c-4.734 6.745-14.066 8.447-20.89 3.68l-16.4-11.48v19.19c0 8.29-6.72 15-15 15v-125.92c8.28 0 15 6.72 15 15v19.19l16.4-11.48c6.78-4.75 16.14-3.1 20.89 3.69 4.75 6.78 3.1 16.14-3.69 20.89l-22.39 15.67 22.39 15.67c6.79 4.76 8.44 14.11 3.69 20.9z" fill="#69ba67"/><path d="m303 47v25c0 8.28-6.72 15-15 15s-15-6.72-15-15v-25c0-9.37-7.63-17-17-17s-17 7.63-17 17v25c0 8.28-6.72 15-15 15s-15-6.72-15-15v-25c0-25.92 21.08-47 47-47s47 21.08 47 47z" fill="#e0e3fa"/><path d="m303 47v25c0 8.28-6.72 15-15 15s-15-6.72-15-15v-25c0-9.37-7.63-17-17-17v-30c25.92 0 47 21.08 47 47z" fill="#cdd3f4"/><path d="m327 72v88c0 8.28-6.72 15-15 15h-112c-8.28 0-15-6.72-15-15v-88c0-8.28 6.72-15 15-15h112c8.28 0 15 6.72 15 15z" fill="#f1cb33"/><path d="m327 72v88c0 8.28-6.72 15-15 15h-56v-118h56c8.28 0 15 6.72 15 15z" fill="#e9a632"/><path d="m271 97v32c0 8.28-6.72 15-15 15s-15-6.72-15-15v-32c0-8.28 6.72-15 15-15s15 6.72 15 15z" fill="#555578"/><path d="m271 97v32c0 8.28-6.72 15-15 15v-62c8.28 0 15 6.72 15 15z" fill="#414164"/></g></svg>